/* XPM */
static char *homebank[] = {
/* columns rows colors chars-per-pixel */
"32 30 185 2",
"   c black",
".  c #0E0B00",
"X  c #110E00",
"o  c #181300",
"O  c #221B00",
"+  c #2C2300",
"@  c #332800",
"#  c #3F3200",
"$  c #423500",
"%  c #4B3C00",
"&  c #702A00",
"*  c #655200",
"=  c #685400",
"-  c #735D00",
";  c #834400",
":  c #856D00",
">  c #8B7200",
",  c #967C01",
"<  c #A77500",
"1  c #AE7C00",
"2  c #A28502",
"3  c #A68A05",
"4  c #AA8B03",
"5  c #AE9106",
"6  c #B08500",
"7  c #B58B00",
"8  c #B88F00",
"9  c #B09307",
"0  c #B39608",
"q  c #BB9400",
"w  c #BF9900",
"e  c #BA9C0A",
"r  c #BEA00A",
"t  c #C19700",
"y  c #C29D00",
"u  c #C5A202",
"i  c #C2A50E",
"p  c #C8A606",
"a  c #C9A709",
"s  c #CBAA0D",
"d  c #C7AA12",
"f  c #CDAD13",
"g  c #CEAE1A",
"h  c #CFB017",
"j  c #CFB118",
"k  c #D2B41D",
"l  c #D5B91A",
"z  c #D3B624",
"x  c #D6B924",
"c  c #D5B92B",
"v  c #D9BE25",
"b  c #D8BD2D",
"n  c #D8BE34",
"m  c #DCC21F",
"M  c #DDC222",
"N  c #DFC62A",
"B  c #DDC43B",
"V  c #DFCE33",
"C  c #DECE3C",
"Z  c #EDD402",
"A  c #ECD40A",
"S  c #E7D112",
"D  c #E5D01C",
"F  c #EED714",
"G  c #EBD51A",
"H  c #EFD814",
"J  c #EFD81B",
"K  c #F0D70A",
"L  c #F0D914",
"P  c #F2DB1C",
"I  c #E3CD25",
"U  c #E1CF2E",
"Y  c #E4CD32",
"T  c #E3CC39",
"R  c #E4D124",
"E  c #E7D12D",
"W  c #EBD421",
"Q  c #EAD32D",
"!  c #EED825",
"~  c #EED929",
"^  c #E6D235",
"/  c #E7D238",
"(  c #E9D432",
")  c #EBD73B",
"_  c #EFDB37",
"`  c #EEDA39",
"'  c #F3DD24",
"]  c #F3DD28",
"[  c #F4DF31",
"{  c #F2DE3A",
"}  c #FAEC19",
"|  c #F5E033",
" . c #F5E13B",
".. c #F8E337",
"X. c #F8E339",
"o. c #DEC542",
"O. c #DDCE42",
"+. c #DBCD4D",
"@. c #D8CD5B",
"#. c #DFD040",
"$. c #DFD04D",
"%. c #DED150",
"&. c #DFD25B",
"*. c #D7CD63",
"=. c #D6CD68",
"-. c #D6CD77",
";. c #D5CE7A",
":. c #DED57F",
">. c #E1CA44",
",. c #E2CB4A",
"<. c #E5CF53",
"1. c #E3D347",
"2. c #E5D04C",
"3. c #E8D34B",
"4. c #EFDB42",
"5. c #EDDA4A",
"6. c #E6D455",
"7. c #EAD75D",
"8. c #ECDB55",
"9. c #ECD95B",
"0. c #F0DD53",
"q. c #F0DE5E",
"w. c #E0D364",
"e. c #E2D76C",
"r. c #E6D966",
"t. c #E3D86E",
"y. c #EFDD65",
"u. c #E2D775",
"i. c #E1D779",
"p. c #E1D87D",
"a. c #F0DF62",
"s. c #F6E344",
"d. c #F5E34D",
"f. c #F8E440",
"g. c #F6E555",
"h. c #F7E659",
"j. c #F8E650",
"k. c #F5E464",
"l. c #B6B9B3",
"z. c #B9BBB6",
"x. c #BCBEB9",
"c. c #BEC0BC",
"v. c #D4CE83",
"b. c #D4CF8B",
"n. c #D2CE97",
"m. c #D2CF9B",
"M. c #D9D38B",
"N. c #D3D09F",
"B. c #DCD695",
"V. c #D9D49E",
"C. c #C0C1BE",
"Z. c #D1CFA7",
"A. c #D3D1A6",
"S. c #D5D3AA",
"D. c #DAD6A4",
"F. c #D8D6AF",
"G. c #DCD8AA",
"H. c #D3D3B6",
"J. c #D2D3BE",
"K. c #DCDABC",
"L. c #C4C6C2",
"P. c #C7C8C5",
"I. c #C9CAC7",
"U. c #CBCDC9",
"Y. c #CED1CB",
"T. c #D2D4C5",
"R. c #D2D5CE",
"E. c #DDDBC2",
"W. c #DEDDCB",
"Q. c #D4D5D2",
"!. c #D5D9D3",
"~. c #D9DBD6",
"^. c #DCDDDA",
"/. c #DFE1DD",
"(. c #E0DFCC",
"). c #E1E2DE",
"_. c #E4E5E2",
"`. c #E7E8E6",
"'. c #E7E9E8",
"]. c #E9EAE7",
"[. c #ECEDEB",
"{. c #EFF0EE",
"}. c #F0F1EF",
"|. c #F1F2F0",
" X c None",
/* pixels */
" X X X X X X X X X Xq t a g c n B n z f p t 7  X X X X X X X X X",
" X X X X X X X Xq y z >.7.y.k.k.k.k.k.a.<.n s t 6  X X X X X X X",
" X X X X X X Xy g >.a.h.s.X.X...X...X.f.j.k.7.n a q  X X X X X X",
" X X X X X6 y z 9.g...[ { 8.u.i.p.u.r.5...[ s.a.,.f t  X X X X X",
" X X X X Xu b y.f.] { e.G.~._.'.].].).(.B.3.[ [ g.6.g q  X X X X",
" X X X Xy c 9.| ] 3.D.).{.|.|.[.[.{.[.[.`.(.p._ ' d.2.s y  X X X",
" X X Xw j 8...' <.E.[.{.{.{.[._._.].).^.).[._.B._ ' d.T u ;  X X",
" X X< u o.s.P 1.K.[.[.{.|.{._._._.).^.~.^.]._._.M.] ] 8.k t  X X",
" X Xq k 8.' ~ V.'.{.{.{.[.'.`._._./.^.!./.].)._.^.w.P  .>.p 8  X",
" X Xy B  .H &./.].].{.]._._._._./.^.^.~./.].]._._.F.( P 5.h q  X",
" Xq s 3.' J V.].].]._./.^._._.).^.^.~.Q.~._.)._./.~.%.L { b y  X",
" Xq k 5.H ^ E.)._./.^.^.^.^.^.^.^.^.Q.Q.Y.!././.^./.M.H ] T u  X",
" Xq z 4.K 1.~.)./.!.!.!.Q.I.P.P.I.U.Q.Y.Y.U.Y.^.~.^.A.J P T a  X",
" Xq x { A +././.!.!.Y.P.c.x.x.x.C.C.L.P.I.U.U.R.~.^.S.D H / a & ",
" Xq x _ Z 1.^./././.C.c.x.x.x.x.z.c.c.c.x.C.!.~.!.~.A.G L ^ a & ",
" Xq k _ Z 1.!.~./.Y.c.z.x.x.x.z.c.c.z.z.z.c.R.~.!.~.Z.A L Y p  X",
" Xq f ) A R J.!.R.T.c.l.l.z.c.z.z.z.z.z.l.z.Y.!.!.!.;.A J N u  X",
" Xq p Y H Z b.!.R.U.l.l.l.l.l.l.z.l.z.z.l.l.Y.R.!.T.#.Z ~ l w  X",
" X Xr M ~ Z C T.!.U.l.l.l.l.l.l.l.l.l.l.l.l.U.R.~.m.S Z Q s w  X",
" X Xq h ( K A v.!.Y.c.c.z.c.c.c.C.z.C.z.c.c.Y.!.T.C Z J M u 1  X",
" X X  q M ~ Z D N.!.R.R.R.R.R.R.Q.Y.R.R.R.R.Q.R.*.Z A Q f 4    X",
"      % r E G Z R m.!.!.R.Y.R.R.Q.Q.R.Q.R.!.T.=.A Z ! l 3       ",
"        = d Q L Z D ;.J.!.!.!.!.Q.Q.Q.Q.R.Z.+.Z Z G m 4 O       ",
"          - d U G Z Z V -.Z.J.Y.Y.T.H.n.@.D Z Z W M 5 +         ",
"            * e I ! A Z Z S E C O.V I A Z Z L W l 2 +           ",
"              $ 3 j I ! F Z Z Z Z Z Z A H W M i : .             ",
" X              . = 5 h m I W W W W W I l i , #                 ",
" X X                X % > 4 0 r r e 5 2 - @                  X X",
" X X X X                    o + @ O .                    X X X X",
" X X X X X X X                                       X X X X X X"
};
