<?xml version="1.0" encoding="UTF-8" standalone="no"?>
<!-- Created with Inkscape (http://www.inkscape.org/) -->

<svg xmlns:osb="http://www.openswatchbook.org/uri/2009/osb" xmlns:dc="http://purl.org/dc/elements/1.1/" xmlns:cc="http://creativecommons.org/ns#" xmlns:rdf="http://www.w3.org/1999/02/22-rdf-syntax-ns#" xmlns:svg="http://www.w3.org/2000/svg" xmlns="http://www.w3.org/2000/svg" xmlns:sodipodi="http://sodipodi.sourceforge.net/DTD/sodipodi-0.dtd" xmlns:inkscape="http://www.inkscape.org/namespaces/inkscape" id="svg7384" height="16" width="16" version="1.1" inkscape:version="0.91 r13725" sodipodi:docname="hicolor_status_scalable_btn-split-symbolic.svg">
  <defs id="defs12">
    <linearGradient osb:paint="solid" id="linearGradient5606">
      <stop style="stop-color:#000000;stop-opacity:1;" offset="0" id="stop5608" />
    </linearGradient>
    <filter style="color-interpolation-filters:sRGB" id="filter7554">
      <feBlend mode="darken" in2="BackgroundImage" id="feBlend7556" />
    </filter>
    <filter style="color-interpolation-filters:sRGB" id="filter7554-5">
      <feBlend mode="darken" in2="BackgroundImage" id="feBlend7556-6" />
    </filter>
    <filter id="filter7554-1" style="color-interpolation-filters:sRGB">
      <feBlend id="feBlend7556-8" in2="BackgroundImage" mode="darken" />
    </filter>
  </defs>
  <sodipodi:namedview pagecolor="#ffffff" bordercolor="#666666" borderopacity="1" objecttolerance="10" gridtolerance="10" guidetolerance="10" inkscape:pageopacity="0" inkscape:pageshadow="2" inkscape:window-width="1366" inkscape:window-height="737" id="namedview10" showgrid="true" inkscape:zoom="33.625" inkscape:cx="8" inkscape:cy="8" inkscape:window-x="0" inkscape:window-y="0" inkscape:window-maximized="1" inkscape:current-layer="svg7384">
    <inkscape:grid type="xygrid" id="grid3219" />
  </sodipodi:namedview>
  <metadata id="metadata90">
    <rdf:RDF>
      <cc:Work rdf:about="">
        <dc:format>image/svg+xml</dc:format>
        <dc:type rdf:resource="http://purl.org/dc/dcmitype/StillImage" />
        <dc:title>HomeBank Symbolic Icon Theme</dc:title>
      </cc:Work>
    </rdf:RDF>
  </metadata>
  <title id="title9167">HomeBank Symbolic Icon Theme</title>
  <path d="m 11.63569,19.084704 -5.55859,3.51953 c -0.51544,-0.41091 -1.14497,-0.67387 -1.80664,-0.67383 -1.57091,9e-5 -2.99805,1.42933 -2.99805,3 0,1.57067 1.42714,2.99991 2.99805,3 0.66167,4e-5 1.2912,-0.26292 1.80664,-0.67383 l 5.55859,3.51953 1.07031,-1.6914 -5.52343,-3.4961 c 0.0545,-0.21463 0.0898,-0.43406 0.0898,-0.6582 0,-0.22414 -0.0353,-0.44357 -0.0898,-0.6582 l 5.52344,-3.4961 -1.07031,-1.6914 z" id="path6545-7" style="color:#000000;display:inline;overflow:visible;visibility:visible;fill:#bebebe;fill-opacity:1;fill-rule:nonzero;stroke:none;stroke-width:0.99999994;marker:none;enable-background:new" inkscape:connector-curvature="0" />
  <path d="m 12.77241,23.430404 -3.5,-5.5 6,0 z" id="path6549-4" style="color:#000000;display:inline;overflow:visible;visibility:visible;fill:#bebebe;fill-opacity:1;fill-rule:nonzero;stroke:none;stroke-width:0.99999994;marker:none;enable-background:new" inkscape:connector-curvature="0" />
  <path d="m 12.77241,26.430404 -3.5,5.5 6,0 z" id="path6717" style="color:#000000;display:inline;overflow:visible;visibility:visible;fill:#bebebe;fill-opacity:1;fill-rule:nonzero;stroke:none;stroke-width:0.99999994;marker:none;enable-background:new" inkscape:connector-curvature="0" />
  <path inkscape:connector-curvature="0" id="rect3217-6-2" d="m 11.753766,9.2775867 a 1.0001,1.0001 0 0 0 -0.5,1.7188003 l 1.281,1.28 -1.2812,1.2812 a 1.0165,1.0165 0 1 0 1.4375,1.4375 l 2,-2 0.6875,-0.71875 -0.6875,-0.71875 -2,-2.0000003 a 1.0001,1.0001 0 0 0 -0.937,-0.28 z" style="color:#bebebe;text-indent:0;text-transform:none;block-progression:tb;fill:#bebebe" />
  <path style="color:#000000;font-style:normal;font-variant:normal;font-weight:normal;font-stretch:normal;font-size:medium;line-height:normal;font-family:sans-serif;text-indent:0;text-align:start;text-decoration:none;text-decoration-line:none;text-decoration-style:solid;text-decoration-color:#000000;letter-spacing:normal;word-spacing:normal;text-transform:none;direction:ltr;block-progression:tb;writing-mode:lr-tb;baseline-shift:baseline;text-anchor:start;white-space:normal;clip-rule:nonzero;display:inline;overflow:visible;visibility:visible;opacity:1;isolation:auto;mix-blend-mode:normal;color-interpolation:sRGB;color-interpolation-filters:linearRGB;solid-color:#000000;solid-opacity:1;fill:#bebebe;fill-opacity:1;fill-rule:evenodd;stroke:none;stroke-width:2;stroke-linecap:butt;stroke-linejoin:miter;stroke-miterlimit:4;stroke-dasharray:none;stroke-dashoffset:0;stroke-opacity:1;color-rendering:auto;image-rendering:auto;shape-rendering:auto;text-rendering:auto;enable-background:accumulate" d="M 9.1425781,2.6914062 C 8.074424,2.7049684 6.9576378,3.2242537 6.4426198,4.1953061 5.8780561,5.0074446 5.3276215,5.8319539 4.7918214,6.6614056 4.3763914,7.1376216 3.7163049,6.9685358 3.1620427,7 2.4413618,7 1.7206809,7 1,7 c 0,0.6666667 0,1.3333333 0,2 1.0574413,0.00798 2.1210143,-0.016059 3.1744876,0.012175 0.5787991,0.04931 0.807147,0.6318623 1.0865678,1.0486776 0.5250669,0.778645 1.0375749,1.569769 1.5978514,2.32215 0.7068973,0.719041 1.7485552,0.983424 2.7323459,0.925591 1.1369003,0 2.2738003,0 3.4107003,0 -0.0013,-0.666667 -0.0026,-1.333333 -0.0039,-2 -1.334167,-0.007 -2.669628,0.01414 -4.0029778,-0.01074 C 8.2268608,11.144984 7.9520409,10.31121 7.5113627,9.7624171 7.0792534,9.1797503 6.6888757,8.5653194 6.2363281,8 6.7151876,7.3939498 7.1381593,6.742957 7.5946855,6.1181654 8.0043017,5.5812148 8.3050784,4.7739229 9.0683731,4.6940584 10.378821,4.6878906 11.689473,4.6931589 13,4.6914062 c 0,-0.6666667 0,-1.3333333 0,-2 -1.285807,0 -2.571615,0 -3.8574219,0 z" id="path3262-6" inkscape:connector-curvature="0" />
  <path inkscape:connector-curvature="0" id="rect3217-6-2-9" d="m 11.761379,6.7044263 a 1.0001,1.0001 0 0 1 -0.5,-1.7188003 l 1.281,-1.28 -1.2812,-1.2812 a 1.0165,1.0165 0 1 1 1.4375,-1.4375 l 2,2 0.6875,0.71875 -0.6875,0.71875 -2,2.0000003 a 1.0001,1.0001 0 0 1 -0.937,0.28 z" style="color:#bebebe;text-indent:0;text-transform:none;block-progression:tb;fill:#bebebe" />
</svg>
