<?xml version="1.0" encoding="UTF-8" standalone="no"?>
<!-- Created with Inkscape (http://www.inkscape.org/) -->

<svg xmlns:osb="http://www.openswatchbook.org/uri/2009/osb" xmlns:dc="http://purl.org/dc/elements/1.1/" xmlns:cc="http://creativecommons.org/ns#" xmlns:rdf="http://www.w3.org/1999/02/22-rdf-syntax-ns#" xmlns:svg="http://www.w3.org/2000/svg" xmlns="http://www.w3.org/2000/svg" xmlns:sodipodi="http://sodipodi.sourceforge.net/DTD/sodipodi-0.dtd" xmlns:inkscape="http://www.inkscape.org/namespaces/inkscape" id="svg7384" height="16" width="16" version="1.1" inkscape:version="0.91 r13725" sodipodi:docname="hicolor_actions_scalable_btn-collapse-symbolic.svg">
  <defs id="defs12">
    <linearGradient id="linearGradient5606" osb:paint="solid">
      <stop id="stop5608" offset="0" style="stop-color:#000000;stop-opacity:1;" />
    </linearGradient>
    <filter id="filter7554" style="color-interpolation-filters:sRGB">
      <feBlend id="feBlend7556" in2="BackgroundImage" mode="darken" />
    </filter>
    <filter id="filter7554-5" style="color-interpolation-filters:sRGB">
      <feBlend id="feBlend7556-6" in2="BackgroundImage" mode="darken" />
    </filter>
  </defs>
  <sodipodi:namedview pagecolor="#ffffff" bordercolor="#666666" borderopacity="1" objecttolerance="10" gridtolerance="10" guidetolerance="10" inkscape:pageopacity="0" inkscape:pageshadow="2" inkscape:window-width="1366" inkscape:window-height="734" id="namedview10" showgrid="true" inkscape:zoom="33.125" inkscape:cx="8" inkscape:cy="8" inkscape:window-x="0" inkscape:window-y="0" inkscape:window-maximized="1" inkscape:current-layer="svg7384">
    <inkscape:grid type="xygrid" id="grid3277" />
  </sodipodi:namedview>
  <metadata id="metadata90">
    <rdf:RDF>
      <cc:Work rdf:about="">
        <dc:format>image/svg+xml</dc:format>
        <dc:type rdf:resource="http://purl.org/dc/dcmitype/StillImage" />
        <dc:title>HomeBank Symbolic Icon Theme</dc:title>
      </cc:Work>
    </rdf:RDF>
  </metadata>
  <title id="title9167">HomeBank Symbolic Icon Theme</title>
  <g id="g3337">
    <path inkscape:connector-curvature="0" id="rect38609" d="m 2.0193441,1.0385841 c 4.3294264,0 8.6588529,0 12.9882789,0 0,0.6667334 0,1.3334667 0,2.0002 -4.329426,0 -8.6588525,0 -12.9882789,0 0,-0.6667333 0,-1.3334666 0,-2.0002 z" style="color:#bebebe;fill:#bebebe" />
    <path style="color:#000000;text-indent:0;text-transform:none;block-progression:tb;fill:#bebebe" d="M 8.9848854,8.986471 C 8.9410769,8.376736 9.154272,7.636703 8.6194814,7.183557 7.553732,6.118409 6.4892053,5.052037 5.4226354,3.987711 5.1261561,4.008011 4.7964582,3.948111 4.5195941,4.015761 3.4144611,5.126079 2.2986242,6.226281 1.2002653,7.343001 0.8539712,7.821614 1.0276493,8.438213 0.9851654,8.987731 1.5949014,8.943912 2.3349381,9.1571627 2.7880876,8.6223651 3.5204369,7.889984 4.2527861,7.157602 4.9851354,6.425221 5.8013523,7.221715 6.5805745,8.060744 7.4207165,8.8297421 7.8942801,9.0936389 8.4682907,8.9521502 8.9848854,8.986471 Z" id="path3613-6-6-9-5" inkscape:connector-curvature="0" />
    <path style="color:#000000;text-indent:0;text-transform:none;block-progression:tb;fill:#bebebe" d="m 3.9848854,12.986471 c 0,-2.333333 0,-4.666667 0,-7 0.6666667,0 1.3333333,0 2,0 0,2.333333 0,4.666667 0,7 -0.6666667,0 -1.3333333,0 -2,0 z" id="path35770-1-5" inkscape:connector-curvature="0" />
  </g>
</svg>
